<svg width="21" height="14" viewBox="0 0 21 14" fill="none" xmlns="http://www.w3.org/2000/svg">
<path d="M8.15625 6.61719C9.66797 7.03906 10.4062 8.19922 10.4062 9.74609C10.4062 12.2773 8.29688 13.3672 6.01172 13.3672H0V0.921875H5.87109C7.98047 0.921875 9.84375 1.51953 9.84375 4.01562C9.84375 5.24609 9.24609 6.05469 8.15625 6.61719ZM2.70703 3.03125V5.94922H5.48438C6.46875 5.94922 7.17188 5.52734 7.17188 4.47266C7.17188 3.3125 6.29297 3.03125 5.30859 3.03125H2.70703ZM5.66016 11.2578C6.75 11.2578 7.66406 10.8711 7.66406 9.60547C7.66406 8.33984 6.92578 7.8125 5.69531 7.8125H2.70703V11.2578H5.66016ZM18.2461 2.78516V1.55469H13.2188V2.78516H18.2461ZM20.25 9.00781C20.25 9.14844 20.2148 9.32422 20.2148 9.46484H13.7109C13.7109 10.9062 14.4844 11.75 15.9258 11.75C16.6641 11.75 17.6484 11.3633 17.8945 10.5898H20.0742C19.4062 12.6289 18 13.6133 15.8555 13.6133C13.0078 13.6133 11.2148 11.6797 11.2148 8.86719C11.2148 6.16016 13.0781 4.08594 15.8555 4.08594C18.668 4.08594 20.25 6.33594 20.25 9.00781ZM13.7109 7.88281H17.7539C17.6484 6.6875 17.0156 5.98438 15.75 5.98438C14.5898 5.98438 13.7812 6.72266 13.7109 7.88281Z" fill="white"/>
</svg>
