<svg width="148" height="47" viewBox="0 0 148 47" fill="none" xmlns="http://www.w3.org/2000/svg">
<path fillRule="evenodd" clip-rule="evenodd" d="M10 42.5H0L0 22.5C0 11.4544 8.9543 2.5 20 2.5C31.0456 2.5 40 11.4544 40 22.5V42.5H30C24.4772 42.5 20 38.0228 20 32.5C20 38.0228 15.5228 42.5 10 42.5Z" fill="white"/>
<path d="M47.1719 19V4.9082H52.8359C55.8047 4.9082 57.7871 6.82227 57.7871 9.72266V9.74219C57.7871 12.6426 55.8047 14.5566 52.8359 14.5566H50.1211V19H47.1719ZM52.1133 7.24219H50.1211V12.252H52.1133C53.8027 12.252 54.7988 11.3535 54.7988 9.75195V9.73242C54.7988 8.13086 53.8027 7.24219 52.1133 7.24219ZM61.7227 19.166C59.623 19.166 58.207 17.8477 58.207 16.002V15.9824C58.207 14.0781 59.6816 12.9648 62.2793 12.7988L64.8672 12.6426V11.998C64.8672 11.0703 64.2617 10.4941 63.1484 10.4941C62.084 10.4941 61.4395 10.9922 61.3027 11.666L61.2832 11.7539H58.6758L58.6855 11.6367C58.8418 9.70312 60.502 8.31641 63.2656 8.31641C65.9707 8.31641 67.7188 9.71289 67.7188 11.8223V19H64.8672V17.4375H64.8086C64.2129 18.5117 63.0996 19.166 61.7227 19.166ZM61.0293 15.8555C61.0293 16.627 61.6641 17.0859 62.6504 17.0859C63.9297 17.0859 64.8672 16.2656 64.8672 15.1719V14.4199L62.709 14.5566C61.6055 14.625 61.0293 15.0938 61.0293 15.8359V15.8555ZM73.7246 19.2148C71.4004 19.2148 70.3066 18.3164 70.3066 16.0703V10.6797H68.8516V8.53125H70.3066V5.97266H73.1875V8.53125H75.1016V10.6797H73.1875V15.7578C73.1875 16.7344 73.627 17.0664 74.4863 17.0664C74.7402 17.0664 74.9258 17.0371 75.1016 17.0176V19.1074C74.7793 19.1562 74.3203 19.2148 73.7246 19.2148ZM76.6738 19V8.53125H79.5254V10.3574H79.584C79.8965 9.06836 80.7461 8.31641 81.9668 8.31641C82.2793 8.31641 82.5723 8.36523 82.7871 8.42383V10.9336C82.5527 10.8359 82.1621 10.7773 81.752 10.7773C80.3457 10.7773 79.5254 11.6172 79.5254 13.1406V19H76.6738ZM85.4434 7.18359C84.584 7.18359 83.9199 6.50977 83.9199 5.69922C83.9199 4.88867 84.584 4.21484 85.4434 4.21484C86.3027 4.21484 86.9668 4.88867 86.9668 5.69922C86.9668 6.50977 86.3027 7.18359 85.4434 7.18359ZM84.0176 19V8.53125H86.8691V19H84.0176ZM93.5684 19.2148C90.375 19.2148 88.4023 17.1348 88.4023 13.7559V13.7461C88.4023 10.3965 90.4043 8.31641 93.5391 8.31641C96.3809 8.31641 98.1875 10.0645 98.2949 12.3301V12.3984H95.6484L95.6289 12.3105C95.4531 11.3145 94.7598 10.5527 93.5781 10.5527C92.1816 10.5527 91.3027 11.7539 91.3027 13.7559V13.7656C91.3027 15.8164 92.1816 16.9785 93.5879 16.9785C94.7305 16.9785 95.4434 16.2754 95.6387 15.2207L95.6484 15.1328H98.3047V15.1914C98.168 17.4766 96.3613 19.2148 93.5684 19.2148ZM99.7793 19V4.9082H102.631V12.7207H102.689L106.225 8.53125H109.457L105.502 13.0332L109.652 19H106.361L103.363 14.7227L102.631 15.5332V19H99.7793ZM47.25 38.5176V36.0273H53.5781V38.5176H47.25ZM58.334 43V31.3398H54.2617V28.9082H65.3652V31.3398H61.2832V43H58.334ZM69.0273 43.2148C66.7227 43.2148 65.4141 41.7402 65.4141 39.2891V32.5312H68.2656V38.6934C68.2656 40.0605 68.9102 40.8516 70.1895 40.8516C71.4688 40.8516 72.2793 39.9141 72.2793 38.5469V32.5312H75.1309V43H72.2793V41.2715H72.2207C71.6836 42.4727 70.6094 43.2148 69.0273 43.2148ZM78.627 46.4473C78.0703 46.4473 77.5039 46.3789 77.1719 46.3203V44.2012C77.377 44.2402 77.709 44.2988 78.1289 44.2988C78.9785 44.2988 79.4473 44.0547 79.7012 43.3418L79.8281 43L76.127 32.5312H79.2617L81.4688 40.7148H81.5469L83.7637 32.5312H86.7715L83.1777 43.1855C82.3574 45.6562 80.9512 46.4473 78.627 46.4473ZM89.252 31.1836C88.3926 31.1836 87.7285 30.5098 87.7285 29.6992C87.7285 28.8887 88.3926 28.2148 89.252 28.2148C90.1113 28.2148 90.7754 28.8887 90.7754 29.6992C90.7754 30.5098 90.1113 31.1836 89.252 31.1836ZM87.8262 43V32.5312H90.6777V43H87.8262ZM96.8984 43.2148C93.998 43.2148 92.3867 41.877 92.1621 39.8945L92.1523 39.8066H94.9355L94.9551 39.8945C95.1406 40.7148 95.7559 41.1934 96.8984 41.1934C97.9727 41.1934 98.627 40.7734 98.627 40.0996V40.0898C98.627 39.5332 98.2754 39.2109 97.25 38.9863L95.4727 38.6152C93.4414 38.1855 92.416 37.1699 92.416 35.6074V35.5977C92.416 33.6055 94.1348 32.3164 96.8008 32.3164C99.584 32.3164 101.137 33.791 101.205 35.627V35.7246H98.5781L98.5684 35.6465C98.4707 34.8945 97.8555 34.3281 96.8008 34.3281C95.8145 34.3281 95.1992 34.7676 95.1992 35.4414V35.4512C95.1992 35.9883 95.5605 36.3398 96.6152 36.5645L98.3926 36.9453C100.58 37.4043 101.479 38.2637 101.479 39.8066V39.8164C101.479 41.8672 99.5938 43.2148 96.8984 43.2148ZM102.953 43V28.9082H105.805V34.3379H105.863C106.4 33.0391 107.504 32.3164 109.076 32.3164C111.342 32.3164 112.748 33.8984 112.748 36.4277V43H109.896V37.0137C109.896 35.5488 109.174 34.6797 107.875 34.6797C106.615 34.6797 105.805 35.6367 105.805 37.0039V43H102.953ZM116.068 31.1836C115.209 31.1836 114.545 30.5098 114.545 29.6992C114.545 28.8887 115.209 28.2148 116.068 28.2148C116.928 28.2148 117.592 28.8887 117.592 29.6992C117.592 30.5098 116.928 31.1836 116.068 31.1836ZM114.643 43V32.5312H117.494V43H114.643ZM119.408 43V32.5312H122.26V34.2891H122.318C122.748 33.0977 123.842 32.3164 125.248 32.3164C126.713 32.3164 127.777 33.0977 128.129 34.4746H128.188C128.656 33.1562 129.906 32.3164 131.439 32.3164C133.49 32.3164 134.867 33.7324 134.867 35.8418V43H132.016V36.5547C132.016 35.3438 131.41 34.6797 130.307 34.6797C129.223 34.6797 128.51 35.4707 128.51 36.6328V43H125.766V36.4668C125.766 35.3438 125.131 34.6797 124.076 34.6797C122.992 34.6797 122.26 35.5 122.26 36.6816V43H119.408ZM141.439 43.2148C138.236 43.2148 136.293 41.1348 136.293 37.7852V37.7754C136.293 34.4453 138.256 32.3164 141.322 32.3164C144.389 32.3164 146.312 34.3965 146.312 37.5605V38.4395H139.105C139.135 40.1094 140.043 41.0859 141.498 41.0859C142.67 41.0859 143.383 40.4414 143.588 39.8555L143.607 39.7969H146.225L146.195 39.9043C145.873 41.4473 144.428 43.2148 141.439 43.2148ZM141.371 34.4453C140.199 34.4453 139.32 35.2266 139.135 36.6426H143.578C143.402 35.1973 142.553 34.4453 141.371 34.4453Z" fill="white"/>
</svg>
