<svg width="176" height="65" viewBox="0 0 176 65" fill="none" xmlns="http://www.w3.org/2000/svg">
<path fill-rule="evenodd" clip-rule="evenodd" d="M10 55H0L0 35C0 23.9544 8.9543 15 20 15C31.0456 15 40 23.9544 40 35V55H30C24.4772 55 20 50.5228 20 45C20 50.5228 15.5228 55 10 55Z" fill="#0C0D0E"/>
<path d="M51.88 30V29.8C52.0933 29.7467 52.2467 29.6267 52.34 29.44C52.4333 29.2533 52.48 28.96 52.48 28.56V18.02C52.48 17.6333 52.4333 17.3467 52.34 17.16C52.2467 16.9733 52.0933 16.8533 51.88 16.8V16.6H55.04C56.4933 16.6 57.6133 16.92 58.4 17.56C59.2 18.1867 59.6 19.1 59.6 20.3C59.6 21.5 59.2 22.4267 58.4 23.08C57.6133 23.72 56.48 24.04 55 24.04H54.24V28.46C54.24 28.8867 54.3 29.2 54.42 29.4C54.54 29.5867 54.7467 29.72 55.04 29.8V30H51.88ZM54.24 23.6H55.02C56.86 23.6 57.78 22.5 57.78 20.3C57.78 18.1267 56.86 17.04 55.02 17.04H54.24V23.6ZM63.3611 30.2C62.8411 30.2 62.3744 30.0867 61.9611 29.86C61.5611 29.62 61.2411 29.2933 61.0011 28.88C60.7744 28.4667 60.6611 27.9933 60.6611 27.46C60.6611 26.46 60.9878 25.5133 61.6411 24.62C62.2944 23.7133 63.3078 22.8133 64.6811 21.92C64.5611 21.2667 64.3878 20.7933 64.1611 20.5C63.9344 20.1933 63.6344 20.04 63.2611 20.04C62.9011 20.04 62.6278 20.16 62.4411 20.4C62.2678 20.6267 62.1544 20.9867 62.1011 21.48C62.0611 21.92 61.8678 22.14 61.5211 22.14C61.3344 22.14 61.1811 22.08 61.0611 21.96C60.9544 21.84 60.9011 21.6867 60.9011 21.5C60.9011 21.1533 61.0144 20.84 61.2411 20.56C61.4811 20.2667 61.7944 20.04 62.1811 19.88C62.5811 19.7067 63.0211 19.62 63.5011 19.62C65.2478 19.62 66.2411 20.52 66.4811 22.32L67.2811 28.42C67.4011 29.2733 67.6078 29.74 67.9011 29.82V30H67.2211C66.7811 30 66.4411 29.8867 66.2011 29.66C65.9744 29.42 65.8011 29.0067 65.6811 28.42C65.4411 28.98 65.1211 29.42 64.7211 29.74C64.3211 30.0467 63.8678 30.2 63.3611 30.2ZM62.3611 26.92C62.3611 27.6133 62.5078 28.1667 62.8011 28.58C63.0944 28.9933 63.4944 29.2 64.0011 29.2C64.3344 29.2 64.6478 29.1067 64.9411 28.92C65.2478 28.7333 65.4811 28.48 65.6411 28.16L65.6211 28.1L64.7211 22.24C63.9078 22.9867 63.3078 23.7467 62.9211 24.52C62.5478 25.28 62.3611 26.08 62.3611 26.92ZM68.595 20.06C69.1417 19.9533 69.5817 19.6667 69.915 19.2C70.2483 18.72 70.5017 18.0933 70.675 17.32H70.815V20.06H72.075V20.58H70.815V28.18C70.815 28.7 70.8817 29.08 71.015 29.32C71.1617 29.5467 71.4217 29.7133 71.795 29.82V30H68.595V29.82C68.795 29.7667 68.935 29.6467 69.015 29.46C69.1083 29.2733 69.155 29.0067 69.155 28.66V21.82C69.155 21.4333 69.1217 21.1133 69.055 20.86C69.0017 20.5933 68.8483 20.3867 68.595 20.24V20.06ZM72.9114 30V29.82C73.1114 29.7667 73.2514 29.6533 73.3314 29.48C73.4247 29.2933 73.4714 29.02 73.4714 28.66V21.8C73.4714 21.3067 73.4314 20.9533 73.3514 20.74C73.2714 20.5267 73.1247 20.3533 72.9114 20.22V20.04L75.0514 19.7L75.1114 21.64C75.3114 21.04 75.5647 20.5733 75.8714 20.24C76.1914 19.8933 76.5247 19.72 76.8714 19.72C77.1114 19.72 77.2914 19.7867 77.4114 19.92C77.5447 20.04 77.6114 20.2133 77.6114 20.44C77.6114 20.6267 77.5581 20.78 77.4514 20.9C77.3447 21.02 77.1981 21.08 77.0114 21.08C76.8381 21.08 76.7047 21.0533 76.6114 21C76.5314 20.9333 76.4181 20.9 76.2714 20.9C76.0447 20.9 75.8247 21.0333 75.6114 21.3C75.3981 21.5667 75.2381 21.9133 75.1314 22.34V28.24C75.1314 28.7467 75.1914 29.1133 75.3114 29.34C75.4447 29.5533 75.6914 29.7133 76.0514 29.82V30H72.9114ZM79.8555 16.2C80.1488 16.2 80.3955 16.3067 80.5955 16.52C80.7955 16.72 80.8955 16.9667 80.8955 17.26C80.8955 17.5667 80.7955 17.82 80.5955 18.02C80.3955 18.22 80.1488 18.32 79.8555 18.32C79.5488 18.32 79.2955 18.22 79.0955 18.02C78.9088 17.82 78.8155 17.5667 78.8155 17.26C78.8155 16.9667 78.9088 16.72 79.0955 16.52C79.2955 16.3067 79.5488 16.2 79.8555 16.2ZM78.5755 20.06L80.7955 19.76V28.66C80.7955 29.02 80.8355 29.2933 80.9155 29.48C80.9955 29.6533 81.1288 29.7667 81.3155 29.82V30H78.5755V29.82C78.7755 29.7667 78.9155 29.6533 78.9955 29.48C79.0888 29.2933 79.1355 29.02 79.1355 28.66V21.82C79.1355 21.34 79.0955 20.9867 79.0155 20.76C78.9355 20.5333 78.7888 20.36 78.5755 20.24V20.06ZM85.9547 30.2C85.2747 30.2 84.6747 29.98 84.1547 29.54C83.6347 29.0867 83.228 28.46 82.9347 27.66C82.6547 26.8467 82.5147 25.9067 82.5147 24.84C82.5147 23.8133 82.6414 22.9067 82.8947 22.12C83.1614 21.3333 83.5214 20.72 83.9747 20.28C84.428 19.84 84.9547 19.62 85.5547 19.62C85.848 19.62 86.1014 19.6533 86.3147 19.72C86.5414 19.7733 86.7347 19.8333 86.8947 19.9C87.0547 19.9533 87.1814 19.98 87.2747 19.98C87.4347 19.98 87.568 19.8933 87.6747 19.72H87.7747L88.0347 23.2H87.8547C87.1747 21.1067 86.3747 20.06 85.4547 20.06C84.9747 20.06 84.588 20.3533 84.2947 20.94C84.0014 21.5267 83.8547 22.32 83.8547 23.32C83.8547 24.0933 83.928 24.8133 84.0747 25.48C84.2214 26.1333 84.428 26.7 84.6947 27.18C84.9747 27.66 85.2947 28.04 85.6547 28.32C86.0147 28.5867 86.408 28.72 86.8347 28.72C87.3547 28.72 87.7947 28.44 88.1547 27.88L88.2947 27.94C88.0414 28.7133 87.728 29.2867 87.3547 29.66C86.9814 30.02 86.5147 30.2 85.9547 30.2ZM89.4139 30V29.82C89.6006 29.7667 89.7339 29.66 89.8139 29.5C89.8939 29.34 89.9339 29.0933 89.9339 28.76V17.94C89.9339 17.46 89.8939 17.1133 89.8139 16.9C89.7472 16.6733 89.6139 16.5 89.4139 16.38V16.2L91.6139 16.1V28.76C91.6139 29.3733 91.7939 29.7267 92.1539 29.82V30H89.4139ZM97.1339 30.06L96.7139 30.02C96.3139 29.98 95.9606 29.9067 95.6539 29.8C95.3606 29.68 95.0939 29.5133 94.8539 29.3C94.6139 29.0733 94.3739 28.7867 94.1339 28.44C93.8939 28.08 93.6272 27.6667 93.3339 27.2C93.0539 26.72 92.7806 26.24 92.5139 25.76C92.2472 25.2667 92.0072 24.8133 91.7939 24.4L93.1939 22.62C93.5539 22.1533 93.8006 21.7933 93.9339 21.54C94.0806 21.2867 94.1539 21.06 94.1539 20.86C94.1539 20.5267 93.9472 20.2933 93.5339 20.16V19.98H96.4939V20.16C95.7606 20.36 94.8072 21.2133 93.6339 22.72L93.1339 23.34C93.9072 24.94 94.7939 26.5667 95.7939 28.22C96.0606 28.66 96.2872 29 96.4739 29.24C96.6739 29.4667 96.8939 29.68 97.1339 29.88V30.06ZM55.8 51.2H51.76V50.2H55.8V51.2ZM58.4103 56V55.8C58.717 55.7333 58.9236 55.6067 59.0303 55.42C59.1503 55.2333 59.2103 54.9133 59.2103 54.46V43.02H58.9103C58.1636 43.0467 57.5703 43.3467 57.1303 43.92C56.7036 44.48 56.3703 45.38 56.1303 46.62H55.9703L56.1903 42.6H64.0103L64.2303 46.62H64.0703C63.8303 45.3933 63.4903 44.4933 63.0503 43.92C62.6103 43.3467 62.0236 43.0467 61.2903 43.02H60.9903V54.46C60.9903 54.9133 61.0436 55.2333 61.1503 55.42C61.2703 55.6067 61.4836 55.7333 61.7903 55.8V56H58.4103ZM68.2128 56.2C67.3861 56.2 66.7795 55.9467 66.3928 55.44C66.0061 54.9333 65.8128 54.2 65.8128 53.24V47.82C65.8128 47.3267 65.7728 46.9733 65.6928 46.76C65.6261 46.5333 65.4861 46.3533 65.2728 46.22V46.04L67.4728 45.7V53.04C67.4728 53.7733 67.5861 54.3267 67.8128 54.7C68.0528 55.06 68.4328 55.24 68.9528 55.24C69.2595 55.24 69.5461 55.1733 69.8128 55.04C70.0928 54.8933 70.3261 54.6867 70.5128 54.42V47.82C70.5128 47.3267 70.4728 46.9733 70.3928 46.76C70.3261 46.5333 70.1861 46.3533 69.9728 46.22V46.04L72.1928 45.7V54.26C72.1928 54.74 72.2261 55.0933 72.2928 55.32C72.3728 55.5333 72.5195 55.7 72.7328 55.82V56H70.5928L70.5328 54.68C70.3061 55.1467 69.9861 55.52 69.5728 55.8C69.1595 56.0667 68.7061 56.2 68.2128 56.2ZM74.9614 59.5C74.6281 59.5 74.3481 59.4133 74.1214 59.24C73.8947 59.08 73.7814 58.8667 73.7814 58.6C73.7814 58.4 73.8481 58.2333 73.9814 58.1C74.1147 57.9667 74.2881 57.9 74.5014 57.9C74.6747 57.9 74.8147 57.94 74.9214 58.02C75.0414 58.1 75.1481 58.18 75.2414 58.26C75.3347 58.34 75.4481 58.38 75.5814 58.38C75.7681 58.38 75.9281 58.3067 76.0614 58.16C76.1947 58.0267 76.3147 57.8 76.4214 57.48L77.0214 55.78L74.5814 48.18C74.4347 47.7267 74.3014 47.3667 74.1814 47.1C74.0747 46.8333 73.9681 46.6333 73.8614 46.5C73.7547 46.3533 73.6281 46.24 73.4814 46.16V45.98H76.4414V46.16C76.1481 46.2933 76.0014 46.54 76.0014 46.9C76.0014 47.06 76.0214 47.2333 76.0614 47.42C76.1147 47.6067 76.1814 47.8533 76.2614 48.16L77.8614 53.38L78.9214 49.76C79.1081 49.1333 79.2281 48.6467 79.2814 48.3C79.3481 47.94 79.3814 47.6333 79.3814 47.38C79.3814 47.06 79.3214 46.8067 79.2014 46.62C79.0814 46.42 78.8947 46.2667 78.6414 46.16V45.98H81.2014V46.16C81.0681 46.2267 80.9414 46.3267 80.8214 46.46C80.7014 46.58 80.5814 46.7667 80.4614 47.02C80.3414 47.2733 80.2014 47.6267 80.0414 48.08C79.8814 48.52 79.6881 49.0867 79.4614 49.78L77.4214 56.12L76.9014 57.64C76.6747 58.3067 76.4147 58.78 76.1214 59.06C75.8281 59.3533 75.4414 59.5 74.9614 59.5ZM83.1172 42.2C83.4105 42.2 83.6572 42.3067 83.8572 42.52C84.0572 42.72 84.1572 42.9667 84.1572 43.26C84.1572 43.5667 84.0572 43.82 83.8572 44.02C83.6572 44.22 83.4105 44.32 83.1172 44.32C82.8105 44.32 82.5572 44.22 82.3572 44.02C82.1705 43.82 82.0772 43.5667 82.0772 43.26C82.0772 42.9667 82.1705 42.72 82.3572 42.52C82.5572 42.3067 82.8105 42.2 83.1172 42.2ZM81.8372 46.06L84.0572 45.76V54.66C84.0572 55.02 84.0972 55.2933 84.1772 55.48C84.2572 55.6533 84.3905 55.7667 84.5772 55.82V56H81.8372V55.82C82.0372 55.7667 82.1772 55.6533 82.2572 55.48C82.3505 55.2933 82.3972 55.02 82.3972 54.66V47.82C82.3972 47.34 82.3572 46.9867 82.2772 46.76C82.1972 46.5333 82.0505 46.36 81.8372 46.24V46.06ZM86.2164 52.38C86.5631 53.5267 86.9697 54.38 87.4364 54.94C87.9031 55.5 88.4431 55.78 89.0564 55.78C89.4697 55.78 89.8031 55.6467 90.0564 55.38C90.3097 55.1 90.4364 54.7333 90.4364 54.28C90.4364 53.7867 90.3297 53.3667 90.1164 53.02C89.9164 52.66 89.6497 52.3467 89.3164 52.08C88.9964 51.8133 88.6497 51.56 88.2764 51.32C87.9164 51.0667 87.5697 50.8 87.2364 50.52C86.9164 50.2267 86.6497 49.8933 86.4364 49.52C86.2364 49.1333 86.1364 48.6733 86.1364 48.14C86.1364 47.6467 86.2431 47.2133 86.4564 46.84C86.6697 46.4667 86.9631 46.1733 87.3364 45.96C87.7231 45.7333 88.1564 45.62 88.6364 45.62C88.9164 45.62 89.1631 45.6533 89.3764 45.72C89.5897 45.7733 89.7764 45.8333 89.9364 45.9C90.1097 45.9533 90.2431 45.98 90.3364 45.98C90.5497 45.98 90.6897 45.8933 90.7564 45.72H90.8964L91.1364 48.9H90.9564C90.6631 47.9267 90.3231 47.2067 89.9364 46.74C89.5497 46.2733 89.1097 46.04 88.6164 46.04C88.2297 46.04 87.9164 46.16 87.6764 46.4C87.4497 46.64 87.3364 46.9533 87.3364 47.34C87.3364 47.74 87.4364 48.08 87.6364 48.36C87.8497 48.6267 88.1164 48.88 88.4364 49.12C88.7697 49.3467 89.1164 49.58 89.4764 49.82C89.8497 50.06 90.1964 50.3333 90.5164 50.64C90.8497 50.9467 91.1164 51.3133 91.3164 51.74C91.5297 52.1533 91.6364 52.6667 91.6364 53.28C91.6364 53.8667 91.5231 54.38 91.2964 54.82C91.0831 55.2467 90.7831 55.5867 90.3964 55.84C90.0097 56.08 89.5497 56.2 89.0164 56.2C88.5764 56.2 88.1831 56.14 87.8364 56.02C87.5031 55.9133 87.2231 55.86 86.9964 55.86C86.7297 55.86 86.5431 55.94 86.4364 56.1H86.3164L86.0564 52.38H86.2164ZM97.7105 56V55.82C97.8971 55.7667 98.0305 55.6533 98.1105 55.48C98.2038 55.2933 98.2505 55.02 98.2505 54.66V48.92C98.2505 47.3733 97.7171 46.6 96.6505 46.6C96.0105 46.6 95.4905 46.8733 95.0905 47.42V54.76C95.0905 55.36 95.2705 55.7133 95.6305 55.82V56H92.8905V55.82C93.0771 55.7667 93.2105 55.66 93.2905 55.5C93.3705 55.3267 93.4105 55.08 93.4105 54.76V43.94C93.4105 43.46 93.3705 43.1133 93.2905 42.9C93.2238 42.6733 93.0905 42.5 92.8905 42.38V42.2L95.0905 42.1V47.14C95.3038 46.6733 95.6171 46.3067 96.0305 46.04C96.4438 45.76 96.8971 45.62 97.3905 45.62C98.2038 45.62 98.8238 45.8867 99.2505 46.42C99.6905 46.94 99.9105 47.7 99.9105 48.7V54.66C99.9105 55.02 99.9505 55.2933 100.03 55.48C100.11 55.6533 100.25 55.7667 100.45 55.82V56H97.7105ZM103.117 42.2C103.411 42.2 103.657 42.3067 103.857 42.52C104.057 42.72 104.157 42.9667 104.157 43.26C104.157 43.5667 104.057 43.82 103.857 44.02C103.657 44.22 103.411 44.32 103.117 44.32C102.811 44.32 102.557 44.22 102.357 44.02C102.171 43.82 102.077 43.5667 102.077 43.26C102.077 42.9667 102.171 42.72 102.357 42.52C102.557 42.3067 102.811 42.2 103.117 42.2ZM101.837 46.06L104.057 45.76V54.66C104.057 55.02 104.097 55.2933 104.177 55.48C104.257 55.6533 104.391 55.7667 104.577 55.82V56H101.837V55.82C102.037 55.7667 102.177 55.6533 102.257 55.48C102.351 55.2933 102.397 55.02 102.397 54.66V47.82C102.397 47.34 102.357 46.9867 102.277 46.76C102.197 46.5333 102.051 46.36 101.837 46.24V46.06ZM106.036 56V55.82C106.236 55.7667 106.376 55.6467 106.456 55.46C106.55 55.2733 106.596 55.0067 106.596 54.66V47.82C106.596 47.34 106.556 46.9867 106.476 46.76C106.396 46.5333 106.25 46.3533 106.036 46.22V46.04L108.156 45.7L108.216 47.16C108.443 46.68 108.75 46.3067 109.136 46.04C109.536 45.76 109.97 45.62 110.436 45.62C110.983 45.62 111.43 45.76 111.776 46.04C112.136 46.32 112.383 46.72 112.516 47.24C112.756 46.7333 113.076 46.34 113.476 46.06C113.89 45.7667 114.343 45.62 114.836 45.62C115.516 45.62 116.05 45.8467 116.436 46.3C116.823 46.74 117.016 47.36 117.016 48.16V54.66C117.016 55.02 117.056 55.2933 117.136 55.48C117.216 55.6533 117.356 55.7667 117.556 55.82V56H114.816V55.82C115.016 55.7667 115.156 55.6533 115.236 55.48C115.316 55.2933 115.356 55.02 115.356 54.66V48.42C115.356 47.82 115.243 47.3667 115.016 47.06C114.79 46.7533 114.463 46.6 114.036 46.6C113.77 46.6 113.496 46.6867 113.216 46.86C112.95 47.0333 112.736 47.2533 112.576 47.52C112.616 47.72 112.636 47.9333 112.636 48.16V54.66C112.636 55.02 112.676 55.2933 112.756 55.48C112.836 55.6533 112.97 55.7667 113.156 55.82V56H110.436V55.82C110.623 55.7667 110.756 55.6533 110.836 55.48C110.93 55.2933 110.976 55.02 110.976 54.66V48.42C110.976 47.82 110.856 47.3667 110.616 47.06C110.39 46.7533 110.063 46.6 109.636 46.6C109.383 46.6 109.13 46.68 108.876 46.84C108.623 46.9867 108.41 47.1933 108.236 47.46V47.66V54.66C108.236 55.02 108.276 55.2933 108.356 55.48C108.436 55.6533 108.576 55.7667 108.776 55.82V56H106.036ZM122.087 56.2C121.394 56.2 120.787 55.9867 120.267 55.56C119.76 55.1333 119.367 54.5267 119.087 53.74C118.807 52.94 118.667 52 118.667 50.92C118.667 49.88 118.807 48.9667 119.087 48.18C119.367 47.38 119.747 46.7533 120.227 46.3C120.72 45.8467 121.287 45.62 121.927 45.62C122.474 45.62 122.954 45.7667 123.367 46.06C123.78 46.3533 124.1 46.7667 124.327 47.3C124.554 47.8333 124.667 48.46 124.667 49.18V49.64H119.947C119.96 50.6267 120.107 51.5 120.387 52.26C120.667 53.02 121.034 53.62 121.487 54.06C121.954 54.5 122.474 54.72 123.047 54.72C123.62 54.72 124.12 54.4333 124.547 53.86L124.667 53.92C124.44 54.6133 124.114 55.1667 123.687 55.58C123.26 55.9933 122.727 56.2 122.087 56.2ZM121.787 46.06C121.267 46.06 120.84 46.3533 120.507 46.94C120.174 47.5133 119.987 48.2933 119.947 49.28L121.587 49.22C122.16 49.1933 122.56 49.08 122.787 48.88C123.027 48.6667 123.147 48.3333 123.147 47.88C123.147 47.32 123.02 46.88 122.767 46.56C122.527 46.2267 122.2 46.06 121.787 46.06Z" fill="#0C0D0E" style="mix-blend-mode:difference"/>
</svg>
