<svg width="176" height="50" viewBox="0 0 176 50" fill="none" xmlns="http://www.w3.org/2000/svg">
<path fill-rule="evenodd" clip-rule="evenodd" d="M10 44.9999H0L0 24.9999C0 13.9543 8.9543 4.99995 20 4.99995C31.0456 4.99995 40 13.9543 40 24.9999V44.9999H30C24.4772 44.9999 20 40.5228 20 34.9999C20 40.5228 15.5228 44.9999 10 44.9999Z" fill="#0C0D0E"/>
<path d="M51.88 20V19.8C52.0933 19.7467 52.2467 19.6267 52.34 19.44C52.4333 19.2533 52.48 18.96 52.48 18.56V8.02C52.48 7.63333 52.4333 7.34667 52.34 7.16C52.2467 6.97333 52.0933 6.85333 51.88 6.8V6.6H55.04C56.4933 6.6 57.6133 6.92 58.4 7.56C59.2 8.18667 59.6 9.1 59.6 10.3C59.6 11.5 59.2 12.4267 58.4 13.08C57.6133 13.72 56.48 14.04 55 14.04H54.24V18.46C54.24 18.8867 54.3 19.2 54.42 19.4C54.54 19.5867 54.7467 19.72 55.04 19.8V20H51.88ZM54.24 13.6H55.02C56.86 13.6 57.78 12.5 57.78 10.3C57.78 8.12667 56.86 7.04 55.02 7.04H54.24V13.6ZM63.3611 20.2C62.8411 20.2 62.3744 20.0867 61.9611 19.86C61.5611 19.62 61.2411 19.2933 61.0011 18.88C60.7744 18.4667 60.6611 17.9933 60.6611 17.46C60.6611 16.46 60.9878 15.5133 61.6411 14.62C62.2944 13.7133 63.3078 12.8133 64.6811 11.92C64.5611 11.2667 64.3878 10.7933 64.1611 10.5C63.9344 10.1933 63.6344 10.04 63.2611 10.04C62.9011 10.04 62.6278 10.16 62.4411 10.4C62.2678 10.6267 62.1544 10.9867 62.1011 11.48C62.0611 11.92 61.8678 12.14 61.5211 12.14C61.3344 12.14 61.1811 12.08 61.0611 11.96C60.9544 11.84 60.9011 11.6867 60.9011 11.5C60.9011 11.1533 61.0144 10.84 61.2411 10.56C61.4811 10.2667 61.7944 10.04 62.1811 9.88C62.5811 9.70667 63.0211 9.62 63.5011 9.62C65.2478 9.62 66.2411 10.52 66.4811 12.32L67.2811 18.42C67.4011 19.2733 67.6078 19.74 67.9011 19.82V20H67.2211C66.7811 20 66.4411 19.8867 66.2011 19.66C65.9744 19.42 65.8011 19.0067 65.6811 18.42C65.4411 18.98 65.1211 19.42 64.7211 19.74C64.3211 20.0467 63.8678 20.2 63.3611 20.2ZM62.3611 16.92C62.3611 17.6133 62.5078 18.1667 62.8011 18.58C63.0944 18.9933 63.4944 19.2 64.0011 19.2C64.3344 19.2 64.6478 19.1067 64.9411 18.92C65.2478 18.7333 65.4811 18.48 65.6411 18.16L65.6211 18.1L64.7211 12.24C63.9078 12.9867 63.3078 13.7467 62.9211 14.52C62.5478 15.28 62.3611 16.08 62.3611 16.92ZM68.595 10.06C69.1417 9.95333 69.5817 9.66667 69.915 9.2C70.2483 8.72 70.5017 8.09333 70.675 7.32H70.815V10.06H72.075V10.58H70.815V18.18C70.815 18.7 70.8817 19.08 71.015 19.32C71.1617 19.5467 71.4217 19.7133 71.795 19.82V20H68.595V19.82C68.795 19.7667 68.935 19.6467 69.015 19.46C69.1083 19.2733 69.155 19.0067 69.155 18.66V11.82C69.155 11.4333 69.1217 11.1133 69.055 10.86C69.0017 10.5933 68.8483 10.3867 68.595 10.24V10.06ZM72.9114 20V19.82C73.1114 19.7667 73.2514 19.6533 73.3314 19.48C73.4247 19.2933 73.4714 19.02 73.4714 18.66V11.8C73.4714 11.3067 73.4314 10.9533 73.3514 10.74C73.2714 10.5267 73.1247 10.3533 72.9114 10.22V10.04L75.0514 9.7L75.1114 11.64C75.3114 11.04 75.5647 10.5733 75.8714 10.24C76.1914 9.89333 76.5247 9.72 76.8714 9.72C77.1114 9.72 77.2914 9.78667 77.4114 9.92C77.5447 10.04 77.6114 10.2133 77.6114 10.44C77.6114 10.6267 77.5581 10.78 77.4514 10.9C77.3447 11.02 77.1981 11.08 77.0114 11.08C76.8381 11.08 76.7047 11.0533 76.6114 11C76.5314 10.9333 76.4181 10.9 76.2714 10.9C76.0447 10.9 75.8247 11.0333 75.6114 11.3C75.3981 11.5667 75.2381 11.9133 75.1314 12.34V18.24C75.1314 18.7467 75.1914 19.1133 75.3114 19.34C75.4447 19.5533 75.6914 19.7133 76.0514 19.82V20H72.9114ZM79.8555 6.2C80.1488 6.2 80.3955 6.30667 80.5955 6.52C80.7955 6.72 80.8955 6.96667 80.8955 7.26C80.8955 7.56667 80.7955 7.82 80.5955 8.02C80.3955 8.22 80.1488 8.32 79.8555 8.32C79.5488 8.32 79.2955 8.22 79.0955 8.02C78.9088 7.82 78.8155 7.56667 78.8155 7.26C78.8155 6.96667 78.9088 6.72 79.0955 6.52C79.2955 6.30667 79.5488 6.2 79.8555 6.2ZM78.5755 10.06L80.7955 9.76V18.66C80.7955 19.02 80.8355 19.2933 80.9155 19.48C80.9955 19.6533 81.1288 19.7667 81.3155 19.82V20H78.5755V19.82C78.7755 19.7667 78.9155 19.6533 78.9955 19.48C79.0888 19.2933 79.1355 19.02 79.1355 18.66V11.82C79.1355 11.34 79.0955 10.9867 79.0155 10.76C78.9355 10.5333 78.7888 10.36 78.5755 10.24V10.06ZM85.9547 20.2C85.2747 20.2 84.6747 19.98 84.1547 19.54C83.6347 19.0867 83.228 18.46 82.9347 17.66C82.6547 16.8467 82.5147 15.9067 82.5147 14.84C82.5147 13.8133 82.6414 12.9067 82.8947 12.12C83.1614 11.3333 83.5214 10.72 83.9747 10.28C84.428 9.84 84.9547 9.62 85.5547 9.62C85.848 9.62 86.1014 9.65333 86.3147 9.72C86.5414 9.77333 86.7347 9.83333 86.8947 9.9C87.0547 9.95333 87.1814 9.98 87.2747 9.98C87.4347 9.98 87.568 9.89333 87.6747 9.72H87.7747L88.0347 13.2H87.8547C87.1747 11.1067 86.3747 10.06 85.4547 10.06C84.9747 10.06 84.588 10.3533 84.2947 10.94C84.0014 11.5267 83.8547 12.32 83.8547 13.32C83.8547 14.0933 83.928 14.8133 84.0747 15.48C84.2214 16.1333 84.428 16.7 84.6947 17.18C84.9747 17.66 85.2947 18.04 85.6547 18.32C86.0147 18.5867 86.408 18.72 86.8347 18.72C87.3547 18.72 87.7947 18.44 88.1547 17.88L88.2947 17.94C88.0414 18.7133 87.728 19.2867 87.3547 19.66C86.9814 20.02 86.5147 20.2 85.9547 20.2ZM89.4139 20V19.82C89.6006 19.7667 89.7339 19.66 89.8139 19.5C89.8939 19.34 89.9339 19.0933 89.9339 18.76V7.94C89.9339 7.46 89.8939 7.11333 89.8139 6.9C89.7472 6.67333 89.6139 6.5 89.4139 6.38V6.2L91.6139 6.1V18.76C91.6139 19.3733 91.7939 19.7267 92.1539 19.82V20H89.4139ZM97.1339 20.06L96.7139 20.02C96.3139 19.98 95.9606 19.9067 95.6539 19.8C95.3606 19.68 95.0939 19.5133 94.8539 19.3C94.6139 19.0733 94.3739 18.7867 94.1339 18.44C93.8939 18.08 93.6272 17.6667 93.3339 17.2C93.0539 16.72 92.7806 16.24 92.5139 15.76C92.2472 15.2667 92.0072 14.8133 91.7939 14.4L93.1939 12.62C93.5539 12.1533 93.8006 11.7933 93.9339 11.54C94.0806 11.2867 94.1539 11.06 94.1539 10.86C94.1539 10.5267 93.9472 10.2933 93.5339 10.16V9.98H96.4939V10.16C95.7606 10.36 94.8072 11.2133 93.6339 12.72L93.1339 13.34C93.9072 14.94 94.7939 16.5667 95.7939 18.22C96.0606 18.66 96.2872 19 96.4739 19.24C96.6739 19.4667 96.8939 19.68 97.1339 19.88V20.06ZM55.8 41.2H51.76V40.2H55.8V41.2ZM58.4103 46V45.8C58.717 45.7333 58.9236 45.6067 59.0303 45.42C59.1503 45.2333 59.2103 44.9133 59.2103 44.46V33.02H58.9103C58.1636 33.0467 57.5703 33.3467 57.1303 33.92C56.7036 34.48 56.3703 35.38 56.1303 36.62H55.9703L56.1903 32.6H64.0103L64.2303 36.62H64.0703C63.8303 35.3933 63.4903 34.4933 63.0503 33.92C62.6103 33.3467 62.0236 33.0467 61.2903 33.02H60.9903V44.46C60.9903 44.9133 61.0436 45.2333 61.1503 45.42C61.2703 45.6067 61.4836 45.7333 61.7903 45.8V46H58.4103ZM68.2128 46.2C67.3861 46.2 66.7795 45.9467 66.3928 45.44C66.0061 44.9333 65.8128 44.2 65.8128 43.24V37.82C65.8128 37.3267 65.7728 36.9733 65.6928 36.76C65.6261 36.5333 65.4861 36.3533 65.2728 36.22V36.04L67.4728 35.7V43.04C67.4728 43.7733 67.5861 44.3267 67.8128 44.7C68.0528 45.06 68.4328 45.24 68.9528 45.24C69.2595 45.24 69.5461 45.1733 69.8128 45.04C70.0928 44.8933 70.3261 44.6867 70.5128 44.42V37.82C70.5128 37.3267 70.4728 36.9733 70.3928 36.76C70.3261 36.5333 70.1861 36.3533 69.9728 36.22V36.04L72.1928 35.7V44.26C72.1928 44.74 72.2261 45.0933 72.2928 45.32C72.3728 45.5333 72.5195 45.7 72.7328 45.82V46H70.5928L70.5328 44.68C70.3061 45.1467 69.9861 45.52 69.5728 45.8C69.1595 46.0667 68.7061 46.2 68.2128 46.2ZM74.9614 49.5C74.6281 49.5 74.3481 49.4133 74.1214 49.24C73.8947 49.08 73.7814 48.8667 73.7814 48.6C73.7814 48.4 73.8481 48.2333 73.9814 48.1C74.1147 47.9667 74.2881 47.9 74.5014 47.9C74.6747 47.9 74.8147 47.94 74.9214 48.02C75.0414 48.1 75.1481 48.18 75.2414 48.26C75.3347 48.34 75.4481 48.38 75.5814 48.38C75.7681 48.38 75.9281 48.3067 76.0614 48.16C76.1947 48.0267 76.3147 47.8 76.4214 47.48L77.0214 45.78L74.5814 38.18C74.4347 37.7267 74.3014 37.3667 74.1814 37.1C74.0747 36.8333 73.9681 36.6333 73.8614 36.5C73.7547 36.3533 73.6281 36.24 73.4814 36.16V35.98H76.4414V36.16C76.1481 36.2933 76.0014 36.54 76.0014 36.9C76.0014 37.06 76.0214 37.2333 76.0614 37.42C76.1147 37.6067 76.1814 37.8533 76.2614 38.16L77.8614 43.38L78.9214 39.76C79.1081 39.1333 79.2281 38.6467 79.2814 38.3C79.3481 37.94 79.3814 37.6333 79.3814 37.38C79.3814 37.06 79.3214 36.8067 79.2014 36.62C79.0814 36.42 78.8947 36.2667 78.6414 36.16V35.98H81.2014V36.16C81.0681 36.2267 80.9414 36.3267 80.8214 36.46C80.7014 36.58 80.5814 36.7667 80.4614 37.02C80.3414 37.2733 80.2014 37.6267 80.0414 38.08C79.8814 38.52 79.6881 39.0867 79.4614 39.78L77.4214 46.12L76.9014 47.64C76.6747 48.3067 76.4147 48.78 76.1214 49.06C75.8281 49.3533 75.4414 49.5 74.9614 49.5ZM83.1172 32.2C83.4105 32.2 83.6572 32.3067 83.8572 32.52C84.0572 32.72 84.1572 32.9667 84.1572 33.26C84.1572 33.5667 84.0572 33.82 83.8572 34.02C83.6572 34.22 83.4105 34.32 83.1172 34.32C82.8105 34.32 82.5572 34.22 82.3572 34.02C82.1705 33.82 82.0772 33.5667 82.0772 33.26C82.0772 32.9667 82.1705 32.72 82.3572 32.52C82.5572 32.3067 82.8105 32.2 83.1172 32.2ZM81.8372 36.06L84.0572 35.76V44.66C84.0572 45.02 84.0972 45.2933 84.1772 45.48C84.2572 45.6533 84.3905 45.7667 84.5772 45.82V46H81.8372V45.82C82.0372 45.7667 82.1772 45.6533 82.2572 45.48C82.3505 45.2933 82.3972 45.02 82.3972 44.66V37.82C82.3972 37.34 82.3572 36.9867 82.2772 36.76C82.1972 36.5333 82.0505 36.36 81.8372 36.24V36.06ZM86.2164 42.38C86.5631 43.5267 86.9697 44.38 87.4364 44.94C87.9031 45.5 88.4431 45.78 89.0564 45.78C89.4697 45.78 89.8031 45.6467 90.0564 45.38C90.3097 45.1 90.4364 44.7333 90.4364 44.28C90.4364 43.7867 90.3297 43.3667 90.1164 43.02C89.9164 42.66 89.6497 42.3467 89.3164 42.08C88.9964 41.8133 88.6497 41.56 88.2764 41.32C87.9164 41.0667 87.5697 40.8 87.2364 40.52C86.9164 40.2267 86.6497 39.8933 86.4364 39.52C86.2364 39.1333 86.1364 38.6733 86.1364 38.14C86.1364 37.6467 86.2431 37.2133 86.4564 36.84C86.6697 36.4667 86.9631 36.1733 87.3364 35.96C87.7231 35.7333 88.1564 35.62 88.6364 35.62C88.9164 35.62 89.1631 35.6533 89.3764 35.72C89.5897 35.7733 89.7764 35.8333 89.9364 35.9C90.1097 35.9533 90.2431 35.98 90.3364 35.98C90.5497 35.98 90.6897 35.8933 90.7564 35.72H90.8964L91.1364 38.9H90.9564C90.6631 37.9267 90.3231 37.2067 89.9364 36.74C89.5497 36.2733 89.1097 36.04 88.6164 36.04C88.2297 36.04 87.9164 36.16 87.6764 36.4C87.4497 36.64 87.3364 36.9533 87.3364 37.34C87.3364 37.74 87.4364 38.08 87.6364 38.36C87.8497 38.6267 88.1164 38.88 88.4364 39.12C88.7697 39.3467 89.1164 39.58 89.4764 39.82C89.8497 40.06 90.1964 40.3333 90.5164 40.64C90.8497 40.9467 91.1164 41.3133 91.3164 41.74C91.5297 42.1533 91.6364 42.6667 91.6364 43.28C91.6364 43.8667 91.5231 44.38 91.2964 44.82C91.0831 45.2467 90.7831 45.5867 90.3964 45.84C90.0097 46.08 89.5497 46.2 89.0164 46.2C88.5764 46.2 88.1831 46.14 87.8364 46.02C87.5031 45.9133 87.2231 45.86 86.9964 45.86C86.7297 45.86 86.5431 45.94 86.4364 46.1H86.3164L86.0564 42.38H86.2164ZM97.7105 46V45.82C97.8971 45.7667 98.0305 45.6533 98.1105 45.48C98.2038 45.2933 98.2505 45.02 98.2505 44.66V38.92C98.2505 37.3733 97.7171 36.6 96.6505 36.6C96.0105 36.6 95.4905 36.8733 95.0905 37.42V44.76C95.0905 45.36 95.2705 45.7133 95.6305 45.82V46H92.8905V45.82C93.0771 45.7667 93.2105 45.66 93.2905 45.5C93.3705 45.3267 93.4105 45.08 93.4105 44.76V33.94C93.4105 33.46 93.3705 33.1133 93.2905 32.9C93.2238 32.6733 93.0905 32.5 92.8905 32.38V32.2L95.0905 32.1V37.14C95.3038 36.6733 95.6171 36.3067 96.0305 36.04C96.4438 35.76 96.8971 35.62 97.3905 35.62C98.2038 35.62 98.8238 35.8867 99.2505 36.42C99.6905 36.94 99.9105 37.7 99.9105 38.7V44.66C99.9105 45.02 99.9505 45.2933 100.03 45.48C100.11 45.6533 100.25 45.7667 100.45 45.82V46H97.7105ZM103.117 32.2C103.411 32.2 103.657 32.3067 103.857 32.52C104.057 32.72 104.157 32.9667 104.157 33.26C104.157 33.5667 104.057 33.82 103.857 34.02C103.657 34.22 103.411 34.32 103.117 34.32C102.811 34.32 102.557 34.22 102.357 34.02C102.171 33.82 102.077 33.5667 102.077 33.26C102.077 32.9667 102.171 32.72 102.357 32.52C102.557 32.3067 102.811 32.2 103.117 32.2ZM101.837 36.06L104.057 35.76V44.66C104.057 45.02 104.097 45.2933 104.177 45.48C104.257 45.6533 104.391 45.7667 104.577 45.82V46H101.837V45.82C102.037 45.7667 102.177 45.6533 102.257 45.48C102.351 45.2933 102.397 45.02 102.397 44.66V37.82C102.397 37.34 102.357 36.9867 102.277 36.76C102.197 36.5333 102.051 36.36 101.837 36.24V36.06ZM106.036 46V45.82C106.236 45.7667 106.376 45.6467 106.456 45.46C106.55 45.2733 106.596 45.0067 106.596 44.66V37.82C106.596 37.34 106.556 36.9867 106.476 36.76C106.396 36.5333 106.25 36.3533 106.036 36.22V36.04L108.156 35.7L108.216 37.16C108.443 36.68 108.75 36.3067 109.136 36.04C109.536 35.76 109.97 35.62 110.436 35.62C110.983 35.62 111.43 35.76 111.776 36.04C112.136 36.32 112.383 36.72 112.516 37.24C112.756 36.7333 113.076 36.34 113.476 36.06C113.89 35.7667 114.343 35.62 114.836 35.62C115.516 35.62 116.05 35.8467 116.436 36.3C116.823 36.74 117.016 37.36 117.016 38.16V44.66C117.016 45.02 117.056 45.2933 117.136 45.48C117.216 45.6533 117.356 45.7667 117.556 45.82V46H114.816V45.82C115.016 45.7667 115.156 45.6533 115.236 45.48C115.316 45.2933 115.356 45.02 115.356 44.66V38.42C115.356 37.82 115.243 37.3667 115.016 37.06C114.79 36.7533 114.463 36.6 114.036 36.6C113.77 36.6 113.496 36.6867 113.216 36.86C112.95 37.0333 112.736 37.2533 112.576 37.52C112.616 37.72 112.636 37.9333 112.636 38.16V44.66C112.636 45.02 112.676 45.2933 112.756 45.48C112.836 45.6533 112.97 45.7667 113.156 45.82V46H110.436V45.82C110.623 45.7667 110.756 45.6533 110.836 45.48C110.93 45.2933 110.976 45.02 110.976 44.66V38.42C110.976 37.82 110.856 37.3667 110.616 37.06C110.39 36.7533 110.063 36.6 109.636 36.6C109.383 36.6 109.13 36.68 108.876 36.84C108.623 36.9867 108.41 37.1933 108.236 37.46V37.66V44.66C108.236 45.02 108.276 45.2933 108.356 45.48C108.436 45.6533 108.576 45.7667 108.776 45.82V46H106.036ZM122.087 46.2C121.394 46.2 120.787 45.9867 120.267 45.56C119.76 45.1333 119.367 44.5267 119.087 43.74C118.807 42.94 118.667 42 118.667 40.92C118.667 39.88 118.807 38.9667 119.087 38.18C119.367 37.38 119.747 36.7533 120.227 36.3C120.72 35.8467 121.287 35.62 121.927 35.62C122.474 35.62 122.954 35.7667 123.367 36.06C123.78 36.3533 124.1 36.7667 124.327 37.3C124.554 37.8333 124.667 38.46 124.667 39.18V39.64H119.947C119.96 40.6267 120.107 41.5 120.387 42.26C120.667 43.02 121.034 43.62 121.487 44.06C121.954 44.5 122.474 44.72 123.047 44.72C123.62 44.72 124.12 44.4333 124.547 43.86L124.667 43.92C124.44 44.6133 124.114 45.1667 123.687 45.58C123.26 45.9933 122.727 46.2 122.087 46.2ZM121.787 36.06C121.267 36.06 120.84 36.3533 120.507 36.94C120.174 37.5133 119.987 38.2933 119.947 39.28L121.587 39.22C122.16 39.1933 122.56 39.08 122.787 38.88C123.027 38.6667 123.147 38.3333 123.147 37.88C123.147 37.32 123.02 36.88 122.767 36.56C122.527 36.2267 122.2 36.06 121.787 36.06Z" fill="#0C0D0E" style="mix-blend-mode:difference"/>
</svg>
