<svg width="176" height="47" viewBox="0 0 176 47" fill="none" xmlns="http://www.w3.org/2000/svg">
<path fill-rule="evenodd" clip-rule="evenodd" d="M10 44.9999H0L0 24.9999C0 13.9543 8.9543 4.99995 20 4.99995C31.0456 4.99995 40 13.9543 40 24.9999V44.9999H30C24.4772 44.9999 20 40.5228 20 34.9999C20 40.5228 15.5228 44.9999 10 44.9999Z" fill="white"/>
<path d="M52.1719 19V4.9082H57.8359C60.8047 4.9082 62.7871 6.82227 62.7871 9.72266V9.74219C62.7871 12.6426 60.8047 14.5566 57.8359 14.5566H55.1211V19H52.1719ZM57.1133 7.24219H55.1211V12.252H57.1133C58.8027 12.252 59.7988 11.3535 59.7988 9.75195V9.73242C59.7988 8.13086 58.8027 7.24219 57.1133 7.24219ZM66.7227 19.166C64.623 19.166 63.207 17.8477 63.207 16.002V15.9824C63.207 14.0781 64.6816 12.9648 67.2793 12.7988L69.8672 12.6426V11.998C69.8672 11.0703 69.2617 10.4941 68.1484 10.4941C67.084 10.4941 66.4395 10.9922 66.3027 11.666L66.2832 11.7539H63.6758L63.6855 11.6367C63.8418 9.70312 65.502 8.31641 68.2656 8.31641C70.9707 8.31641 72.7188 9.71289 72.7188 11.8223V19H69.8672V17.4375H69.8086C69.2129 18.5117 68.0996 19.166 66.7227 19.166ZM66.0293 15.8555C66.0293 16.627 66.6641 17.0859 67.6504 17.0859C68.9297 17.0859 69.8672 16.2656 69.8672 15.1719V14.4199L67.709 14.5566C66.6055 14.625 66.0293 15.0938 66.0293 15.8359V15.8555ZM78.7246 19.2148C76.4004 19.2148 75.3066 18.3164 75.3066 16.0703V10.6797H73.8516V8.53125H75.3066V5.97266H78.1875V8.53125H80.1016V10.6797H78.1875V15.7578C78.1875 16.7344 78.627 17.0664 79.4863 17.0664C79.7402 17.0664 79.9258 17.0371 80.1016 17.0176V19.1074C79.7793 19.1562 79.3203 19.2148 78.7246 19.2148ZM81.6738 19V8.53125H84.5254V10.3574H84.584C84.8965 9.06836 85.7461 8.31641 86.9668 8.31641C87.2793 8.31641 87.5723 8.36523 87.7871 8.42383V10.9336C87.5527 10.8359 87.1621 10.7773 86.752 10.7773C85.3457 10.7773 84.5254 11.6172 84.5254 13.1406V19H81.6738ZM90.4434 7.18359C89.584 7.18359 88.9199 6.50977 88.9199 5.69922C88.9199 4.88867 89.584 4.21484 90.4434 4.21484C91.3027 4.21484 91.9668 4.88867 91.9668 5.69922C91.9668 6.50977 91.3027 7.18359 90.4434 7.18359ZM89.0176 19V8.53125H91.8691V19H89.0176ZM98.5684 19.2148C95.375 19.2148 93.4023 17.1348 93.4023 13.7559V13.7461C93.4023 10.3965 95.4043 8.31641 98.5391 8.31641C101.381 8.31641 103.188 10.0645 103.295 12.3301V12.3984H100.648L100.629 12.3105C100.453 11.3145 99.7598 10.5527 98.5781 10.5527C97.1816 10.5527 96.3027 11.7539 96.3027 13.7559V13.7656C96.3027 15.8164 97.1816 16.9785 98.5879 16.9785C99.7305 16.9785 100.443 16.2754 100.639 15.2207L100.648 15.1328H103.305V15.1914C103.168 17.4766 101.361 19.2148 98.5684 19.2148ZM104.779 19V4.9082H107.631V12.7207H107.689L111.225 8.53125H114.457L110.502 13.0332L114.652 19H111.361L108.363 14.7227L107.631 15.5332V19H104.779ZM52.25 38.5176V36.0273H58.5781V38.5176H52.25ZM63.334 43V31.3398H59.2617V28.9082H70.3652V31.3398H66.2832V43H63.334ZM74.0273 43.2148C71.7227 43.2148 70.4141 41.7402 70.4141 39.2891V32.5312H73.2656V38.6934C73.2656 40.0605 73.9102 40.8516 75.1895 40.8516C76.4688 40.8516 77.2793 39.9141 77.2793 38.5469V32.5312H80.1309V43H77.2793V41.2715H77.2207C76.6836 42.4727 75.6094 43.2148 74.0273 43.2148ZM83.627 46.4473C83.0703 46.4473 82.5039 46.3789 82.1719 46.3203V44.2012C82.377 44.2402 82.709 44.2988 83.1289 44.2988C83.9785 44.2988 84.4473 44.0547 84.7012 43.3418L84.8281 43L81.127 32.5312H84.2617L86.4688 40.7148H86.5469L88.7637 32.5312H91.7715L88.1777 43.1855C87.3574 45.6562 85.9512 46.4473 83.627 46.4473ZM94.252 31.1836C93.3926 31.1836 92.7285 30.5098 92.7285 29.6992C92.7285 28.8887 93.3926 28.2148 94.252 28.2148C95.1113 28.2148 95.7754 28.8887 95.7754 29.6992C95.7754 30.5098 95.1113 31.1836 94.252 31.1836ZM92.8262 43V32.5312H95.6777V43H92.8262ZM101.898 43.2148C98.998 43.2148 97.3867 41.877 97.1621 39.8945L97.1523 39.8066H99.9355L99.9551 39.8945C100.141 40.7148 100.756 41.1934 101.898 41.1934C102.973 41.1934 103.627 40.7734 103.627 40.0996V40.0898C103.627 39.5332 103.275 39.2109 102.25 38.9863L100.473 38.6152C98.4414 38.1855 97.416 37.1699 97.416 35.6074V35.5977C97.416 33.6055 99.1348 32.3164 101.801 32.3164C104.584 32.3164 106.137 33.791 106.205 35.627V35.7246H103.578L103.568 35.6465C103.471 34.8945 102.855 34.3281 101.801 34.3281C100.814 34.3281 100.199 34.7676 100.199 35.4414V35.4512C100.199 35.9883 100.561 36.3398 101.615 36.5645L103.393 36.9453C105.58 37.4043 106.479 38.2637 106.479 39.8066V39.8164C106.479 41.8672 104.594 43.2148 101.898 43.2148ZM107.953 43V28.9082H110.805V34.3379H110.863C111.4 33.0391 112.504 32.3164 114.076 32.3164C116.342 32.3164 117.748 33.8984 117.748 36.4277V43H114.896V37.0137C114.896 35.5488 114.174 34.6797 112.875 34.6797C111.615 34.6797 110.805 35.6367 110.805 37.0039V43H107.953ZM121.068 31.1836C120.209 31.1836 119.545 30.5098 119.545 29.6992C119.545 28.8887 120.209 28.2148 121.068 28.2148C121.928 28.2148 122.592 28.8887 122.592 29.6992C122.592 30.5098 121.928 31.1836 121.068 31.1836ZM119.643 43V32.5312H122.494V43H119.643ZM124.408 43V32.5312H127.26V34.2891H127.318C127.748 33.0977 128.842 32.3164 130.248 32.3164C131.713 32.3164 132.777 33.0977 133.129 34.4746H133.188C133.656 33.1562 134.906 32.3164 136.439 32.3164C138.49 32.3164 139.867 33.7324 139.867 35.8418V43H137.016V36.5547C137.016 35.3438 136.41 34.6797 135.307 34.6797C134.223 34.6797 133.51 35.4707 133.51 36.6328V43H130.766V36.4668C130.766 35.3438 130.131 34.6797 129.076 34.6797C127.992 34.6797 127.26 35.5 127.26 36.6816V43H124.408ZM146.439 43.2148C143.236 43.2148 141.293 41.1348 141.293 37.7852V37.7754C141.293 34.4453 143.256 32.3164 146.322 32.3164C149.389 32.3164 151.312 34.3965 151.312 37.5605V38.4395H144.105C144.135 40.1094 145.043 41.0859 146.498 41.0859C147.67 41.0859 148.383 40.4414 148.588 39.8555L148.607 39.7969H151.225L151.195 39.9043C150.873 41.4473 149.428 43.2148 146.439 43.2148ZM146.371 34.4453C145.199 34.4453 144.32 35.2266 144.135 36.6426H148.578C148.402 35.1973 147.553 34.4453 146.371 34.4453Z" fill="white" style="mix-blend-mode:difference"/>
</svg>
